HIERARCHY
ROOT Hips
{
	OFFSET 0.00000 0.00000 0.00000
	CHANNELS 6 Xposition Yposition Zposition Zrotation Yrotation Xrotation 
	JOINT LHipJoint
	{
		OFFSET 0 0 0
		CHANNELS 3 Zrotation Yrotation Xrotation
		JOINT LeftHip
		{
			OFFSET 1.75344 -1.53157 0.77399
			CHANNELS 3 Zrotation Yrotation Xrotation
			JOINT LeftKnee
			{
				OFFSET 2.25415 -6.19323 0.00000
				CHANNELS 3 Zrotation Yrotation Xrotation
				JOINT LeftAnkle
				{
					OFFSET 2.30342 -6.32861 0.00000
					CHANNELS 3 Zrotation Yrotation Xrotation
					JOINT LeftToe
					{
						OFFSET 0.10958 -0.30108 1.49206
						CHANNELS 3 Zrotation Yrotation Xrotation
						End Site
						{
							OFFSET 0.00000 -0.00000 0.77783
						}
					}
				}
			}
		}
	}
	JOINT RHipJoint
	{
		OFFSET 0 0 0
		CHANNELS 3 Zrotation Yrotation Xrotation
		JOINT RightHip
		{
			OFFSET -1.81912 -1.53156 0.77399
			CHANNELS 3 Zrotation Yrotation Xrotation
			JOINT RightKnee
			{
				OFFSET -2.22882 -6.12365 0.00000
				CHANNELS 3 Zrotation Yrotation Xrotation
				JOINT RightAnkle
				{
					OFFSET -2.21943 -6.09785 0.00000
					CHANNELS 3 Zrotation Yrotation Xrotation
					JOINT RightToe
					{
						OFFSET -0.18931 -0.52012 1.59379
						CHANNELS 3 Zrotation Yrotation Xrotation
						End Site
						{
							OFFSET -0.00000 -0.00000 0.84686
						}
					}
				}
			}
		}
	}
	JOINT lowerback
	{
		OFFSET 0 0 0
		CHANNELS 3 Zrotation Yrotation Xrotation
		JOINT Chest
		{
			OFFSET -0.00200 1.66634 -0.14248
			CHANNELS 3 Zrotation Yrotation Xrotation
			JOINT Chest2
			{
				OFFSET -0.00875 1.64542 0.09514
				CHANNELS 3 Zrotation Yrotation Xrotation
				JOINT lowerneck
				{
					OFFSET 0 0 0
					CHANNELS 3 Zrotation Yrotation Xrotation
					JOINT Neck
					{
						OFFSET 0.02257 1.59605 0.00839
						CHANNELS 3 Zrotation Yrotation Xrotation
						JOINT Head
						{
							OFFSET -0.10214 1.57530 -0.23335
							CHANNELS 3 Zrotation Yrotation Xrotation
							End Site
							{
								OFFSET -0.03588 1.60717 -0.08062
							}
						}
					}
				}
				JOINT LeftCollar
				{
					OFFSET 0 0 0
					CHANNELS 3 Zrotation Yrotation Xrotation
					JOINT LeftShoulder
					{
						OFFSET 2.54983 1.10186 0.40078
CHANNELS 3 Zrotation Xrotation Yrotation
						JOINT LeftElbow
						{
OFFSET 0 -4.288400 0.000000
CHANNELS 3 Zrotation Xrotation Yrotation
							JOINT LeftWrist
							{
OFFSET 0 -3.065520 -0.000000
CHANNELS 3 Zrotation Xrotation Yrotation
								JOINT lhand
								{
									OFFSET 0 0 0
CHANNELS 3 Zrotation Xrotation Yrotation
									JOINT LFingers
									{
OFFSET 0 -0.753040 0.000000
CHANNELS 3 Zrotation Xrotation Yrotation
										End Site
										{
OFFSET 0 -0.607120 0.000000
										}
									}
								}
								JOINT LThumb
								{
OFFSET 0 0.000000 0.000000
CHANNELS 3 Zrotation Xrotation Yrotation
									End Site
									{
OFFSET 0 -0.616390 0.616390
									}
								}
							}
						}
					}
				}
				JOINT RightCollar
				{
					OFFSET 0 0 0
					CHANNELS 3 Zrotation Yrotation Xrotation
					JOINT RightShoulder
					{
						OFFSET -2.60909 1.35448 0.21802
CHANNELS 3 Zrotation Xrotation Yrotation
						JOINT RightElbow
						{
OFFSET 0 -4.521720 -0.000000
CHANNELS 3 Zrotation Xrotation Yrotation
							JOINT RightWrist
							{
OFFSET 0 -2.891400 0.000000
CHANNELS 3 Zrotation Xrotation Yrotation
								JOINT rhand
								{
									OFFSET 0 0 0
CHANNELS 3 Zrotation Xrotation Yrotation
									JOINT RFingers
									{
OFFSET 0 -0.680540 0.000000
CHANNELS 3 Zrotation Xrotation Yrotation
										End Site
										{
OFFSET 0 -0.548670 0.000000
										}
									}
								}
								JOINT RThumb
								{
OFFSET 0 0.000000 0.000000
CHANNELS 3 Zrotation Xrotation Yrotation
									End Site
									{
OFFSET 0 -0.557050 0.557050
									}
								}
							}
						}
					}
				}
			}
		}
	}
}
MOTION
Frames: 5
Frame Time: 0.008333333333333333
9.154251 13.859824 23.314516 -178.846149 0.921014 198.671504 0.000000 0.000000 0.000000 -19.088579 -7.117446 -52.423964 12.212130 18.477540 66.658152 3.916554 -2.320732 -37.009346 1.647388 -8.086921 -22.979710 0.000000 0.000000 0.000000 21.726534 11.381108 -45.863024 -11.408515 -18.127139 64.098622 -3.596257 -8.167778 -39.271706 -0.008545 0.595009 -1.635001 0.084114 -0.749507 18.695704 1.108645 -0.811338 -2.737743 1.438994 -0.313101 -13.633304 -4.642997 -1.674350 -11.633265 5.937330 -0.233268 -9.997639 2.701111 0.546396 -1.182135 0.000000 0.000000 0.000000 47.618909 33.106986 35.236016 23.135551 -34.236711 7.214382 15.274834 -3.874536 25.253672 0.000000 0.000000 0.000000 -7.125000 0.000000 0.000000 -8.713597 4.178618 -8.151579 0.000000 0.000000 0.000000 -55.749482 43.876327 -7.405597 -17.159771 -27.067861 -4.159810 -14.058618 44.622117 64.016909 0.000000 0.000000 0.000000 7.125000 0.000000 0.000000 98.015080 -76.049247 112.484064
9.165747 13.799907 23.310332 -179.126377 0.662958 199.107454 0.000000 0.000000 0.000000 -19.270146 -7.353019 -53.471955 12.556696 18.615237 67.741734 3.942709 -2.403352 -37.119044 1.706713 -8.224905 -23.400087 0.000000 0.000000 0.000000 21.283776 11.506107 -46.963607 -11.826629 -18.315017 65.436627 -3.673244 -8.193667 -39.649862 -0.005788 0.487061 -1.338300 -0.373902 -0.574941 18.466691 1.030944 -0.698946 -2.610776 1.572322 -0.233281 -13.346960 -4.627869 -2.006997 -11.899233 6.136390 -0.536897 -10.525954 2.759583 0.443076 -1.292985 0.000000 0.000000 0.000000 45.141276 32.063518 35.041404 23.086454 -34.183096 7.186830 15.489855 -3.821545 26.044539 0.000000 0.000000 0.000000 -7.125000 0.000000 0.000000 -8.639077 3.351832 -8.213815 0.000000 0.000000 0.000000 -52.642816 43.285497 -8.192586 -17.039831 -26.909946 -4.105506 -14.360787 45.299440 64.369170 0.000000 0.000000 0.000000 7.125000 0.000000 0.000000 99.581592 -76.024537 114.060515
9.180858 13.734593 23.316746 -179.247072 0.343820 199.714566 0.000000 0.000000 0.000000 -19.187150 -7.669031 -54.807307 12.904971 18.747305 68.829816 3.956894 -2.791794 -37.101057 1.587854 -7.948619 -22.558200 0.000000 0.000000 0.000000 20.986604 11.782832 -48.310366 -12.233338 -18.487168 66.726042 -3.714201 -8.267341 -39.878877 -0.002940 0.335570 -0.922022 -0.744509 -0.426562 18.180337 1.035810 -0.589059 -2.585204 1.751304 -0.157544 -13.147271 -4.758819 -2.276562 -11.897639 6.443260 -0.730049 -11.226982 2.887456 0.397715 -1.511004 0.000000 0.000000 0.000000 42.644223 31.039228 34.676295 22.950944 -34.035033 7.110818 15.723515 -3.887267 27.160012 0.000000 0.000000 0.000000 -7.125000 0.000000 0.000000 -8.582984 2.195177 -8.343103 0.000000 0.000000 0.000000 -49.645965 42.477577 -8.931192 -16.812094 -26.609344 -4.002814 -14.508230 45.914481 64.616298 0.000000 0.000000 0.000000 7.125000 0.000000 0.000000 100.604815 -75.983870 115.110403
9.197121 13.656070 23.337445 -179.048301 -0.149412 200.630392 0.000000 0.000000 0.000000 -18.549849 -8.247603 -56.657030 13.273519 18.878067 69.972422 3.950652 -3.189911 -36.985079 1.479515 -7.684467 -21.760240 0.000000 0.000000 0.000000 21.023566 12.226125 -50.073352 -12.633673 -18.645035 67.982818 -3.731121 -8.358677 -40.003068 -0.000476 -0.012362 0.033970 -0.835352 -0.310667 18.311592 1.205094 -0.459283 -3.048045 1.968145 -0.082881 -13.767980 -5.008187 -2.488146 -11.713734 6.730165 -0.901469 -11.678735 3.032838 0.342602 -1.678645 0.000000 0.000000 0.000000 40.256832 30.401599 33.621493 22.777881 -33.844886 7.014225 15.766802 -3.989774 28.184177 0.000000 0.000000 0.000000 -7.125000 0.000000 0.000000 -8.642697 1.160088 -8.564544 0.000000 0.000000 0.000000 -47.199272 41.896048 -8.748109 -16.636732 -26.376322 -3.924620 -14.135082 45.594394 64.942217 0.000000 0.000000 0.000000 7.125000 0.000000 0.000000 101.347661 -75.794298 116.048324
9.216795 13.597805 23.344707 -179.148878 -1.142696 201.102068 0.000000 0.000000 0.000000 -18.125087 -9.149054 -57.641635 13.572381 18.978407 70.893510 3.945036 -3.449145 -36.904119 1.493144 -7.718968 -21.863877 0.000000 0.000000 0.000000 21.037136 11.985858 -51.229008 -12.988549 -18.776866 69.088737 -3.806658 -8.407826 -40.377459 -0.003650 -0.343516 0.944014 -1.002773 -0.388444 18.595584 1.365050 -0.586668 -3.246137 2.292891 -0.113548 -14.162436 -5.251776 -2.758208 -11.555657 7.013310 -1.126632 -12.241595 3.177594 0.269875 -1.876082 0.000000 0.000000 0.000000 37.773788 29.630099 32.262747 22.629254 -33.680775 6.931694 15.709284 -4.289921 28.711145 0.000000 0.000000 0.000000 -7.125000 0.000000 0.000000 -8.722112 0.640714 -8.726254 0.000000 0.000000 0.000000 -44.603878 40.938314 -8.703492 -16.458237 -26.137869 -3.845729 -14.219521 45.399546 65.302248 0.000000 0.000000 0.000000 7.125000 0.000000 0.000000 102.659827 -75.690841 117.437357
